<svg width="16" height="16" viewBox="0 0 16 16" fill="none" xmlns="http://www.w3.org/2000/svg">
<path d="M7.89636 0.00598229L8 0C8.45582 0 8.83156 0.343147 8.88293 0.785227L8.88889 0.888889V7.11111H15.1111C15.5669 7.11111 15.9427 7.45422 15.994 7.89636L16 8C16 8.45582 15.6569 8.83156 15.2148 8.88293L15.1111 8.88889H8.88889V15.1111C8.88889 15.5669 8.54578 15.9427 8.10364 15.994L8 16C7.54418 16 7.16844 15.6569 7.11707 15.2148L7.11111 15.1111V8.88889H0.888889C0.433031 8.88889 0.0573245 8.54578 0.00598229 8.10364L0 8C0 7.54418 0.343147 7.16844 0.785227 7.11707L0.888889 7.11111H7.11111V0.888889C7.11111 0.433031 7.45422 0.0573245 7.89636 0.00598229Z" fill="#ffffff"/>
</svg>
