<svg width="13" height="13" viewBox="0 0 13 13" fill="none" xmlns="http://www.w3.org/2000/svg">
<path d="M0.586586 0.735614L0.655627 0.658081C0.977872 0.335696 1.48619 0.312543 1.83518 0.588736L1.91271 0.657808L6.31344 5.05663L10.7123 0.655899C11.0345 0.333515 11.5428 0.310337 11.8918 0.586567L11.9693 0.655627C12.2917 0.977872 12.3149 1.48617 12.0387 1.83519L11.9696 1.91271L7.57079 6.31344L11.9715 10.7123C12.2939 11.0345 12.3171 11.5428 12.0408 11.8918L11.9718 11.9693C11.6495 12.2917 11.1412 12.3149 10.7922 12.0387L10.7147 11.9696L6.31398 7.57079L1.91516 11.9715C1.59289 12.2939 1.08461 12.3171 0.735614 12.0408L0.658081 11.9718C0.335696 11.6495 0.312543 11.1412 0.588736 10.7922L0.657808 10.7147L5.05663 6.31398L0.6559 1.91516C0.333489 1.59289 0.310331 1.08461 0.586586 0.735614Z" fill="#212121"/>
</svg>
