<svg width="16" height="16" viewBox="0 0 16 16" fill="none" xmlns="http://www.w3.org/2000/svg">
<path d="M6.33331 2C3.57189 2 1.33331 4.23857 1.33331 7C1.33331 7.75567 1.50127 8.47333 1.80222 9.1166C1.60081 9.93333 1.42634 10.8057 1.34781 11.2115C1.25894 11.6709 1.65821 12.0733 2.11661 11.9917C2.53215 11.9177 3.43541 11.7511 4.27427 11.5575C4.90273 11.8419 5.60016 12 6.33331 12C9.09471 12 11.3333 9.7614 11.3333 7C11.3333 4.23857 9.09471 2 6.33331 2ZM6.30792 12.6664C7.20005 13.4941 8.39478 14.0001 9.70771 14.0001C10.4407 14.0001 11.138 13.8421 11.7663 13.5579C12.4622 13.7207 13.2238 13.8833 13.7086 13.9846C14.3036 14.1089 14.8232 13.5749 14.6869 12.985C14.5786 12.5161 14.4078 11.7881 14.239 11.1161C14.5398 10.473 14.7077 9.75553 14.7077 9.00013C14.7077 6.81147 13.3015 4.95131 11.3433 4.27376C11.5768 4.69845 11.7575 5.15632 11.8764 5.63849C12.9784 6.35086 13.7077 7.59033 13.7077 9.00013C13.7077 9.66107 13.5478 10.2832 13.265 10.8313L13.178 11L13.2248 11.1839C13.3766 11.7809 13.5358 12.4505 13.6524 12.9509C13.1364 12.8418 12.4407 12.6908 11.8263 12.5445L11.65 12.5026L11.4877 12.5833C10.9522 12.8499 10.3482 13.0001 9.70771 13.0001C9.00138 13.0001 8.33778 12.817 7.76178 12.4957C7.31785 12.6075 6.85305 12.6668 6.3744 12.6668C6.35221 12.6668 6.33005 12.6667 6.30792 12.6664Z" fill="#ffffff"/>
</svg>
