<svg width="40" height="40" viewBox="0 0 40 40" fill="none" xmlns="http://www.w3.org/2000/svg">
<path d="M15.8333 5C8.92975 5 3.33331 10.5964 3.33331 17.5C3.33331 19.3892 3.7532 21.1833 4.50558 22.7915C4.00205 24.8333 3.56588 27.0142 3.36955 28.0288C3.14738 29.1772 4.14555 30.1832 5.29155 29.9792C6.3304 29.7942 8.58856 29.3778 10.6857 28.8938C12.2568 29.6047 14.0004 30 15.8333 30C22.7368 30 28.3333 24.4035 28.3333 17.5C28.3333 10.5964 22.7368 5 15.8333 5ZM15.7698 31.666C18.0001 33.7352 20.987 35.0003 24.2693 35.0003C26.1018 35.0003 27.845 34.6052 29.4158 33.8947C31.1555 34.3018 33.0596 34.7082 34.2716 34.9615C35.759 35.2723 37.058 33.9373 36.7173 32.4625C36.4465 31.2902 36.0195 29.4703 35.5976 27.7903C36.3496 26.1825 36.7693 24.3888 36.7693 22.5003C36.7693 17.0287 33.2538 12.3783 28.3583 10.6844C28.9421 11.7461 29.3938 12.8908 29.691 14.0962C32.446 15.8772 34.2693 18.9758 34.2693 22.5003C34.2693 24.1527 33.8695 25.708 33.1625 27.0783L32.945 27.5L33.062 27.9597C33.4416 29.4522 33.8395 31.1263 34.1311 32.3773C32.841 32.1045 31.1018 31.727 29.5658 31.3613L29.125 31.2565L28.7193 31.4583C27.3805 32.1248 25.8705 32.5003 24.2693 32.5003C22.5035 32.5003 20.8445 32.0425 19.4045 31.2393C18.2946 31.5187 17.1326 31.667 15.936 31.667C15.8806 31.667 15.8252 31.6667 15.7698 31.666Z" fill="#ffffff"/>
</svg>
