<svg width="16" height="16" viewBox="0 0 16 16" fill="none" xmlns="http://www.w3.org/2000/svg">
<path d="M13.751 9.59797C14.9932 9.59797 16 10.4036 16 11.3974V12.1323C16 12.5911 15.8208 13.0383 15.4874 13.4116C13.9414 15.1425 11.4171 16 7.99674 16C4.57564 16 2.05259 15.1422 0.510376 13.4103C0.178405 13.0375 0 12.5912 0 12.1335V11.3974C0 10.4036 1.00688 9.59797 2.24894 9.59797H13.751ZM7.99674 0C10.7582 0 12.9969 1.79118 12.9969 4.00072C12.9969 6.21026 10.7582 8.00145 7.99674 8.00145C5.2352 8.00145 2.99655 6.21026 2.99655 4.00072C2.99655 1.79118 5.2352 0 7.99674 0Z" fill="#ffffff"/>
</svg>
